<svg xmlns="http://www.w3.org/2000/svg" viewBox="0 0 156 294" width="156" height="294"><defs><linearGradient id="g1" x1="0" y1="0" x2="1" y2="1"><stop offset="0" stop-color="#2E7A54"/><stop offset="1" stop-color="#4CAF7D"/></linearGradient><linearGradient id="g2" x1="0" y1="0" x2="1" y2="1"><stop offset="0" stop-color="#E08A22"/><stop offset="1" stop-color="#F2A03D"/></linearGradient></defs><g transform="translate(-41,-12)"><path d="M172 118 C200 168 204 214 186 250 C170 282 136 300 96 306 C92 262 96 220 114 186 C130 156 150 132 172 118 Z" fill="url(#g2)"/><path d="M108 12 C158 74 172 132 152 178 C134 220 92 244 44 254 C40 196 40 138 60 92 C74 58 88 32 108 12 Z" fill="none" stroke="#0E3D28" stroke-width="16" stroke-linejoin="round"/><path d="M108 12 C158 74 172 132 152 178 C134 220 92 244 44 254 C40 196 40 138 60 92 C74 58 88 32 108 12 Z" fill="url(#g1)"/></g></svg>
